<?xml version="1.0" ?><svg enable-background="new 0 0 800 800" id="Layer_1" version="1.1" viewBox="0 0 800 800" xml:space="preserve" xmlns="http://www.w3.org/2000/svg" xmlns:xlink="http://www.w3.org/1999/xlink"><g><path d="M394.7,736c185.6,0,336-150.4,336-336S580.3,64,394.7,64s-336,150.4-336,336S209.1,736,394.7,736z M394.7,128   c150.4,0,272,121.6,272,272s-121.6,272-272,272s-272-121.6-272-272S244.3,128,394.7,128z"/><path d="M394.7,613.3C512,613.3,608,517.3,608,400s-96-213.3-213.3-213.3s-213.3,96-213.3,213.3S277.3,613.3,394.7,613.3z    M394.7,250.7c82.1,0,149.3,67.2,149.3,149.3s-67.2,149.3-149.3,149.3S245.3,482.1,245.3,400S312.5,250.7,394.7,250.7z"/><path d="M394.7,490.7c50.1,0,90.7-40.5,90.7-90.7s-40.5-90.7-90.7-90.7S304,349.9,304,400S344.5,490.7,394.7,490.7z M394.7,373.3   c14.9,0,26.7,11.7,26.7,26.7s-11.7,26.7-26.7,26.7S368,414.9,368,400S379.7,373.3,394.7,373.3z"/></g></svg>