<?xml version="1.0" ?><svg id="Layer_1" style="enable-background:new 0 0 100 100;" version="1.1" viewBox="0 0 100 100" xml:space="preserve" xmlns="http://www.w3.org/2000/svg" xmlns:xlink="http://www.w3.org/1999/xlink"><g><g><path d="M47.8,20c-0.1,0-9.4-2.9-8.2-11.9l1.9,0.2c-1,7.4,6.5,9.7,6.8,9.8L47.8,20z"/></g><g><path d="M43.9,27.9l-9.5-3.7c-0.2-0.1-0.4-0.3-0.5-0.5c-1.1-2.4-4.7-8.8-8.2-9.9l0.6-1.8c4.4,1.5,8.3,8.8,9.1,10.6l9.2,3.5    L43.9,27.9z"/></g><g><path d="M20.2,47l-0.8-1.7c6.5-3.2,8.3-10,8.3-10.1c0.1-0.3,0.4-0.6,0.7-0.7c3.1-0.6,7.7,5.1,8.7,6.2l-1.5,1.2    c-2-2.5-4.8-5.1-6.3-5.5C28.6,38.4,26.2,43.9,20.2,47z"/></g><g><path d="M22.2,91.9l-1.5-1.1c5.3-7.2,3-25.4,3-25.5c-0.1-0.5,0.3-1,0.8-1c4-0.7,7.4-5.9,7.4-6l1.6,1c-0.1,0.2-3.5,5.2-7.8,6.6    C26,69.6,27.2,84.9,22.2,91.9z"/></g><g><path d="M50,18.5C50,18.5,50,18.5,50,18.5L50,18.5c-6.1,0-6.4,14.6-6.4,14.6l0,0c2-1.2,4.2-1.9,6.4-1.9c2.3,0,4.4,0.7,6.4,1.9l0,0    C56.4,33.1,56.1,18.5,50,18.5z"/></g><g><ellipse cx="50" cy="57.5" rx="17.4" ry="26.3"/></g><g><path d="M43.6,34c0,0-0.1,0-0.1,0c-0.5-0.1-0.8-0.5-0.8-1c0-1.6,0.6-15.5,7.4-15.5c0,0,0,0,0,0c6.8,0,7.3,13.9,7.4,15.5    c0,0.5-0.3,0.9-0.8,1c-0.2,0-0.4,0-0.6-0.1c-3.8-2.3-8.1-2.3-11.9,0C43.9,34,43.7,34,43.6,34z M50,19.4c-3.7,0-5,7.6-5.4,12    c3.5-1.6,7.3-1.6,10.8,0C55.1,27,53.7,19.4,50,19.4C50,19.4,50,19.4,50,19.4z"/></g><g><path d="M50,84.8c-10.1,0-18.3-12.2-18.3-27.3S39.9,30.3,50,30.3l0,0l0,0c5,0,9.6,2.9,13.1,8.1c3.4,5.1,5.2,11.9,5.2,19.1    C68.3,72.6,60.1,84.8,50,84.8z M50,32.1c-9.1,0-16.4,11.4-16.4,25.4c0,14,7.4,25.4,16.4,25.4c9.1,0,16.4-11.4,16.4-25.4    c0-6.8-1.8-13.3-4.9-18.1C58.4,34.7,54.3,32.1,50,32.1L50,32.1z"/></g><g><path d="M52.2,20l-0.5-1.8c0.3-0.1,7.8-2.4,6.8-9.8l1.9-0.2C61.6,17.1,52.3,20,52.2,20z"/></g><g><path d="M56.1,27.9l-0.7-1.8l9.2-3.5c0.8-1.7,4.7-9.1,9.1-10.6l0.6,1.8c-3.4,1.1-7.1,7.5-8.2,9.9c-0.1,0.2-0.3,0.4-0.5,0.5    L56.1,27.9z"/></g><g><path d="M79.8,47c-6-3-8.4-8.6-9.1-10.6c-1.5,0.4-4.3,3-6.3,5.5l-1.5-1.2c0.9-1.1,5.6-6.9,8.7-6.2c0.4,0.1,0.6,0.3,0.7,0.7    c0,0.1,1.9,6.9,8.3,10.1L79.8,47z"/></g><g><path d="M77.8,91.9c-5.1-7-3.9-22.3-3.5-26.1c-4.4-1.3-7.7-6.3-7.8-6.6l1.6-1c0,0.1,3.5,5.2,7.5,6c0.5,0.1,0.8,0.6,0.8,1    c0,0.2-2.2,18.3,3,25.5L77.8,91.9z"/></g></g></svg>