<?xml version="1.0" ?><svg id="Layer_1" style="enable-background:new 0 0 100 100;" version="1.1" viewBox="0 0 100 100" xml:space="preserve" xmlns="http://www.w3.org/2000/svg" xmlns:xlink="http://www.w3.org/1999/xlink"><g><g><path d="M67.4,26.2c0,0-5.1,8.8-16.4,9.2c0,0,0,0,0,0v55.3c5-2,28.4-12.6,28.4-33.3C79.4,34.3,67.4,26.2,67.4,26.2z M58.7,73    c-2.7,0-4.8-2.2-4.8-4.8c0-2.7,2.2-4.8,4.8-4.8c2.7,0,4.8,2.2,4.8,4.8C63.5,70.8,61.3,73,58.7,73z M59.9,57.9    c-2.7,0-4.8-2.2-4.8-4.8c0-2.7,2.2-4.8,4.8-4.8c2.7,0,4.8,2.2,4.8,4.8C64.7,55.7,62.5,57.9,59.9,57.9z M62.1,45.1    c-1.8,0-3.2-1.4-3.2-3.2c0-1.8,1.5-3.2,3.2-3.2c1.8,0,3.2,1.5,3.2,3.2C65.3,43.6,63.9,45.1,62.1,45.1z M72.8,59.9    c-1.8,0-3.2-1.5-3.2-3.2c0-1.8,1.5-3.2,3.2-3.2c1.8,0,3.2,1.5,3.2,3.2C76,58.5,74.5,59.9,72.8,59.9z"/></g><g><path d="M49.1,35.4c-11.3-0.5-16.5-9.2-16.5-9.2s-12,8.1-12,31.3c0,20.7,23.4,31.2,28.4,33.3L49.1,35.4    C49.1,35.5,49.1,35.4,49.1,35.4z M25.7,51.9c0-2.7,2.2-4.8,4.8-4.8s4.8,2.2,4.8,4.8c0,2.7-2.2,4.8-4.8,4.8S25.7,54.5,25.7,51.9z     M36.5,77.1c-2.7,0-4.8-2.2-4.8-4.8c0-2.7,2.2-4.8,4.8-4.8c2.7,0,4.8,2.2,4.8,4.8C41.3,74.9,39.2,77.1,36.5,77.1z M41.5,61.1    c-1.8,0-3.2-1.5-3.2-3.2c0-1.8,1.5-3.2,3.2-3.2c1.8,0,3.2,1.5,3.2,3.2C44.8,59.7,43.3,61.1,41.5,61.1z M42.5,46.8    c-1.8,0-3.2-1.4-3.2-3.2c0-1.8,1.4-3.2,3.2-3.2s3.2,1.5,3.2,3.2C45.7,45.4,44.2,46.8,42.5,46.8z"/></g><g><path d="M45.9,15.8c-0.8-0.9-4.6-5.3-4.4-7.9l1.9,0.2c-0.1,1.3,2.2,4.6,3.9,6.4L45.9,15.8z"/></g><g><path d="M31.8,26.6c-0.8-1.5-3.7-5.3-6.5-5.3c-3.1,0-3.7,1.9-3.7,2.2l-1.8-0.4c0.3-1.3,1.7-3.7,5.6-3.7c4.6,0,8,6,8.2,6.3    L31.8,26.6z"/></g><g><path d="M9.3,49.9l-1.6-1c1.8-3.1,4.1-4.8,6.7-5.1c4.2-0.5,7.6,2.8,7.8,3l-1.3,1.3l0.7-0.7l-0.7,0.7c0,0-2.9-2.8-6.2-2.4    C12.6,45.9,10.8,47.3,9.3,49.9z"/></g><g><path d="M22.4,83.4c-1.9-2.5-2.6-4.8-1.9-6.8c1.1-3.1,4.9-4.1,5-4.1l0.5,1.8l-0.2-0.9l0.2,0.9c0,0-3,0.8-3.7,2.9    c-0.5,1.4,0.1,3.1,1.6,5.1L22.4,83.4z"/></g><g><path d="M50,92.1c-0.1,0-0.2,0-0.3-0.1c-0.3-0.1-7.6-2.7-14.9-8.3c-9.9-7.4-15.1-16.5-15.1-26.3c0-23.4,11.9-31.7,12.4-32.1    c0.2-0.1,0.5-0.2,0.7-0.1c0.3,0.1,0.5,0.2,0.6,0.4c0.2,0.4,5.3,8.8,16.6,8.8c11.3,0,16.5-8.7,16.6-8.8c0.1-0.2,0.4-0.4,0.6-0.4    c0.3-0.1,0.5,0,0.7,0.1c0.5,0.3,12.4,8.7,12.4,32.1c0,9.8-5.2,18.9-15.1,26.3c-7.4,5.5-14.6,8.1-14.9,8.3    C50.2,92,50.1,92.1,50,92.1z M32.4,27.6c-2.6,2.2-10.8,10.9-10.8,29.9c0,21,25.3,31.4,28.4,32.6c3.1-1.2,28.4-11.6,28.4-32.6    c0-19.1-8.3-27.7-10.8-29.9c-1.8,2.4-7.4,8.8-17.6,8.8C39.7,36.4,34.1,30,32.4,27.6z"/></g><g><path d="M50,35.5c-6.2,0-10.6-2.5-13.5-4.9c0-0.1,2.5-16,13.5-16s13.5,15.8,13.5,16C60.6,33,56.2,35.5,50,35.5z"/></g><g><path d="M50,36.4c-6.6,0-11.3-2.8-14.1-5.1c-0.3-0.2-0.4-0.5-0.3-0.9c0.1-0.7,2.7-16.8,14.4-16.8c11.6,0,14.3,16.1,14.4,16.8    c0.1,0.3-0.1,0.7-0.3,0.9C61.3,33.6,56.6,36.4,50,36.4z M37.5,30.2c3.6,2.9,7.8,4.3,12.5,4.3s8.9-1.5,12.5-4.3    c-0.5-2.7-3.4-14.7-12.5-14.7C41,15.5,38.1,27.5,37.5,30.2z"/></g><g><path d="M54.1,15.8l-1.4-1.3c1.7-1.9,4-5.1,3.9-6.4l1.9-0.2C58.7,10.5,54.9,14.9,54.1,15.8z"/></g><g><path d="M68.2,26.6l-1.6-0.9c0.1-0.3,3.6-6.3,8.2-6.3c3.8,0,5.3,2.4,5.6,3.7l-1.9,0.4c0-0.2-0.6-2.1-3.7-2.1    C71.9,21.3,69.1,25.2,68.2,26.6z"/></g><g><path d="M90.7,49.9c-1.5-2.5-3.3-4-5.3-4.2c-3.3-0.4-6.2,2.4-6.2,2.4l-1.3-1.3c0.1-0.1,3.6-3.5,7.8-3c2.6,0.3,4.9,2,6.7,5.1    L90.7,49.9z"/></g><g><path d="M77.6,83.4l-1.5-1.1c1.5-2,2.1-3.7,1.6-5.1C77,75.1,74,74.3,74,74.2l0.5-1.8c0.2,0,4,1.1,5,4.1    C80.2,78.5,79.6,80.8,77.6,83.4z"/></g></g></svg>