<?xml version="1.0" ?><svg id="Layer_1" style="enable-background:new 0 0 24 24;" version="1.1" viewBox="0 0 24 24" xml:space="preserve" xmlns="http://www.w3.org/2000/svg" xmlns:xlink="http://www.w3.org/1999/xlink"><style type="text/css">
	.st0{fill:#1E232D;}
</style><path class="st0" d="M22.7,7l0.1-0.1C23.6,6.1,24,5,24,3.9c0-1.1-0.5-2.1-1.3-2.9c-1.6-1.4-4.1-1.3-5.7,0.3  c-0.3,0.3-0.8,0.4-1.3,0.3c-4-1.4-8.5-0.4-11.5,2.6c-3,3-4,7.5-2.6,11.5c0.2,0.5,0.1,0.9-0.3,1.3c-1.4,1.4-1.7,3.6-0.6,5.2  c0.7,1,1.8,1.7,3,1.8c0.1,0,0.3,0,0.4,0c1.1,0,2.1-0.4,2.9-1.2L7,22.7c0.3-0.3,0.8-0.4,1.3-0.3c4,1.4,8.5,0.4,11.5-2.6  c3-3,4-7.5,2.6-11.5C22.3,7.8,22.4,7.3,22.7,7z M21.4,5.5l-0.1,0.1c-0.9,0.9-1.1,2.1-0.7,3.3c1.1,3.3,0.3,7-2.2,9.5  c-2.5,2.5-6.2,3.3-9.5,2.2c-1.2-0.4-2.5-0.1-3.3,0.7l-0.1,0.1c-0.4,0.4-1,0.7-1.6,0.6c-0.6-0.1-1.2-0.4-1.5-0.9  c-0.5-0.8-0.4-1.9,0.4-2.7c0.9-0.9,1.1-2.1,0.7-3.3c-1.1-3.3-0.3-7,2.2-9.5c1.7-1.7,4.1-2.7,6.5-2.7c1,0,2,0.2,3,0.5  c1.2,0.4,2.5,0.1,3.3-0.7c0.8-0.8,2.1-0.9,2.9-0.2C21.7,2.9,22,3.4,22,4C22,4.5,21.8,5.1,21.4,5.5z M5.5,14.4l1.9-0.7  c-0.6-1.8-0.2-3.8,1.2-5.2L7.1,7.1C5.2,9,4.6,11.8,5.5,14.4z"/></svg>