<?xml version="1.0" ?><svg id="Layer_1" style="enable-background:new 0 0 100 100;" version="1.1" viewBox="0 0 100 100" xml:space="preserve" xmlns="http://www.w3.org/2000/svg" xmlns:xlink="http://www.w3.org/1999/xlink"><g><g><path d="M15.1,92.5v-1.9c5,0,6.9-6.6,8.7-14.7l1.8,0.4C23.6,85.2,21.5,92.5,15.1,92.5z"/></g><g><path d="M37.3,32.5c0-1,0.1-2,0.3-2.9v0c0,0-34.1,24.9-28.5,41.9c5.5,17,31.3,2,31.3-31C38.6,39,37.3,36.5,37.3,32.5z"/></g><g><path d="M50,18.4L50,18.4L50,18.4L50,18.4L50,18.4c0,0-12.7,3.1-12.7,14c0,10.9,9.3,10.3,12.7,10.3c3.4,0,12.7,0.7,12.7-10.3    C62.7,21.5,50,18.4,50,18.4z"/></g><g><path d="M56.4,42.2L56.4,42.2c-2.4,0.7-4.9,0.6-6.4,0.6l0,0c0,0,0,0,0,0l0,0l0,0c-1.5,0-4,0.1-6.4-0.6v0c0,0-3.8,9.7,6.4,9.7l0,0    l0,0c0,0,0,0,0,0l0,0C60.1,51.9,56.4,42.2,56.4,42.2z"/></g><g><path d="M62.7,32.5c0-1-0.1-2-0.3-2.9v0c0,0,34.1,24.9,28.5,41.9c-5.5,17-31.3,2-31.3-31C61.4,39,62.7,36.5,62.7,32.5z"/></g><g><path d="M63.8,61.7c-1.3-3-2.4-6.3-3.1-10c-2.1-2-4.4-2.7-4.4-2.7c-0.9,1.6-2.7,2.9-6.4,2.9c-3.7,0-5.5-1.3-6.4-2.9    c0,0-2.3,0.6-4.4,2.7c-0.7,3.7-1.8,7-3.1,10C36.7,70,40.3,79.6,50,79.6l0,0l0,0c0,0,0,0,0,0l0,0C59.7,79.6,63.3,70,63.8,61.7z"/></g><g><path d="M50,9.8L50,9.8C50,9.8,50,9.8,50,9.8L50,9.8L50,9.8c-5.1,0-12.1,1.8-12.1,7.7c0,5.9,5.7,3.9,5.7,3.9l0,0    c3.2-2.1,6.4-2.9,6.4-2.9c0,0,3.2,0.8,6.4,2.9h0c0,0,5.7,2,5.7-3.9C62.1,11.6,55.1,9.8,50,9.8z"/></g><g><path d="M17.6,79.4c-4.4,0-7.8-2.8-9.4-7.7C2.5,54.3,35.6,29.8,37,28.8c0.3-0.2,0.7-0.2,1.1,0c0.3,0.2,0.5,0.6,0.4,1    c-0.2,0.9-0.3,1.8-0.3,2.7c0,3.3,0.9,5.8,2.7,7.3c0.2,0.2,0.3,0.4,0.3,0.7c0,21.8-11.4,37.1-21.9,38.8    C18.7,79.4,18.2,79.4,17.6,79.4z M36.4,31.7c-6.9,5.4-31,25.5-26.4,39.4c1.5,4.7,4.8,7,9.1,6.3c4.6-0.7,9.6-4.7,13.4-10.7    c3.1-4.9,6.8-13.4,6.9-25.8c-2-1.9-3.1-4.7-3.1-8.4C36.3,32.2,36.3,32,36.4,31.7z"/></g><g><path d="M34.2,32.7c-1.1-0.6-10.9-5.7-10.7-11c0.2-5.3-1.5-12-3.7-12.3l0.3-1.9c4.3,0.7,5.4,10,5.3,14.2c-0.1,3.5,7,7.9,9.7,9.3    L34.2,32.7z"/></g><g><path d="M48.7,43.7c-2.6,0-6.7-0.2-9.5-3c-1.9-1.9-2.9-4.7-2.9-8.2c0-11.5,12.9-14.8,13.4-14.9c0.1,0,0.3,0,0.5,0    c0.5,0.1,13.4,3.5,13.4,14.9c0,3.6-1,6.4-2.9,8.2c-3.1,3-7.7,3-10.3,3l-0.5,0l-0.5,0C49.2,43.7,49,43.7,48.7,43.7z M50,19.4    c-1.8,0.5-11.8,3.7-11.8,13.1c0,3.1,0.8,5.4,2.3,6.9c2.5,2.5,6.5,2.5,8.9,2.4c0.4,0,0.7,0,1.1,0c2.4,0,6.4,0.1,8.9-2.4    c1.5-1.5,2.3-3.8,2.3-6.9C61.8,23.1,51.7,19.9,50,19.4z"/></g><g><path d="M50,52.8c-3.3,0-5.6-1-6.9-2.8c-2.2-3.2-0.5-7.8-0.4-8.1c0.1-0.2,0.2-0.3,0.3-0.4c0.2-0.2,0.5-0.2,0.8-0.2    c2,0.6,4.1,0.6,5.6,0.5l0.5,0l0.5,0c1.4,0,3.6,0,5.6-0.5c0.4-0.1,0.8,0,1,0.4c0,0.1,0.1,0.1,0.1,0.2c0.1,0.2,1.9,4.9-0.4,8.2    C55.6,51.9,53.3,52.8,50,52.8z M44.3,43.3c-0.3,1.3-0.8,3.9,0.4,5.6c0.9,1.3,2.7,2,5.3,2c2.6,0,4.4-0.7,5.3-2    c1.1-1.7,0.8-4.2,0.4-5.6c-2,0.4-3.9,0.4-5.2,0.4l-0.5,0l-0.5,0C48.1,43.7,46.2,43.7,44.3,43.3z"/></g><g><path d="M84.9,92.5c-6.4,0-8.6-7.3-10.6-16.1l1.8-0.4c1.8,8,3.7,14.7,8.7,14.7V92.5z"/></g><g><path d="M82.4,79.4c-0.6,0-1.1,0-1.7-0.1c-10.6-1.7-21.9-17-21.9-38.8c0-0.3,0.1-0.5,0.3-0.7c1.8-1.5,2.7-4,2.7-7.3    c0-0.9-0.1-1.8-0.3-2.7c-0.1-0.4,0.1-0.9,0.5-1.1c0.6-0.3,0.6-0.3,3.7,2.2c1.5,1.2,3.9,3.2,6.6,5.6c10.9,9.9,23.2,24,19.6,35.2    C90.2,76.7,86.8,79.4,82.4,79.4z M60.6,40.9c0.1,12.4,3.8,20.9,6.9,25.8c3.8,6,8.8,10,13.4,10.7c4.3,0.7,7.5-1.5,9.1-6.3    c4.5-13.9-19.5-34-26.4-39.4c0,0.2,0,0.5,0,0.8C63.7,36.2,62.6,39,60.6,40.9z"/></g><g><path d="M50,80.5c-10,0-14.2-9.7-14.7-18.8c0-0.1,0-0.3,0.1-0.4c1.3-3,2.3-6.3,3-9.8c0-0.2,0.1-0.4,0.3-0.5    c2.1-2.1,4.5-2.8,4.7-2.9c0.1,0,0.2,0,0.4,0c0.3,0,0.6,0.2,0.7,0.5c0.8,1.6,2.7,2.4,5.5,2.4c2.8,0,4.7-0.8,5.5-2.4    c0.1-0.3,0.4-0.5,0.7-0.5c0.1,0,0.3,0,0.4,0c0.3,0.1,2.6,0.8,4.7,2.9c0.1,0.1,0.2,0.3,0.3,0.5c0.7,3.5,1.7,6.8,3,9.8    c0.1,0.1,0.1,0.3,0.1,0.4C64.2,70.8,60,80.5,50,80.5z M37.2,61.8C37.7,70,41.3,78.7,50,78.7c8.7,0,12.3-8.6,12.8-16.8    c-1.3-3-2.3-6.3-3-9.7c-1.2-1.1-2.4-1.7-3.1-2c-1.3,1.8-3.6,2.7-6.8,2.7c-3.2,0-5.4-0.9-6.8-2.7c-0.7,0.3-1.9,0.9-3.1,2    C39.5,55.6,38.4,58.8,37.2,61.8z"/></g><g><path d="M65.8,32.7L64.9,31c2.7-1.4,9.8-5.8,9.7-9.3c-0.1-4.2,1-13.6,5.3-14.2l0.3,1.9c-2.2,0.3-3.9,7-3.7,12.3    C76.7,27,66.9,32.1,65.8,32.7z"/></g><g><path d="M41.6,22.6c-0.9,0-1.9-0.2-2.8-0.8c-1.2-0.9-1.8-2.3-1.8-4.4c0-6.4,7-8.6,13-8.6h0c6,0,13,2.3,13,8.6c0,2-0.6,3.5-1.8,4.4    c-2.1,1.5-5,0.5-5.1,0.4c-0.1,0-0.2-0.1-0.2-0.1c-2.5-1.7-5.1-2.5-5.8-2.7c-0.8,0.2-3.3,1-5.8,2.7c-0.1,0-0.1,0.1-0.2,0.1    C43.9,22.3,42.9,22.6,41.6,22.6z M56.8,20.5c0.4,0.1,2.2,0.6,3.3-0.2c0.7-0.5,1-1.4,1-2.8c0-6.5-10-6.7-11.1-6.7h0    c-1.1,0-11.1,0.2-11.1,6.7c0,1.4,0.3,2.3,1,2.8c1,0.7,2.6,0.4,3.3,0.2c3.1-2.1,6.2-2.9,6.5-3l0,0c0.2,0,0.3,0,0.5,0    C50.4,17.5,53.6,18.4,56.8,20.5z"/></g></g></svg>