<?xml version="1.0" ?><!DOCTYPE svg  PUBLIC '-//W3C//DTD SVG 1.1//EN'  'http://www.w3.org/Graphics/SVG/1.1/DTD/svg11.dtd'><svg enable-background="new 0 0 24 24" id="Layer_1" version="1.1" viewBox="0 0 24 24" xml:space="preserve" xmlns="http://www.w3.org/2000/svg" xmlns:xlink="http://www.w3.org/1999/xlink"><path d="M23.5,4H20V0.6C20,0.3,19.8,0,19.5,0C19.2,0,19,0.3,19,0.6V4c-3-2-5-2-5.6-1.4c-3.7,3.7-13,17.7-13,17.7  c-0.4,0.8-0.7,2.6,0,3.3s2.6,0.4,3.1,0c0,0,14.5-9.1,18.2-12.8c0.6-0.6,0.7-2.8-1.3-5.8h3.1C23.8,5,24,4.8,24,4.5  C24,4.2,23.8,4,23.5,4z M19.9,10.1c-0.1,0.1-0.4,0.4-0.4,0.3l-1.7-1.7c-0.2-0.2-0.5-0.2-0.7,0s-0.2,0.5,0,0.7l1.6,1.6  c-1.6,1.2-2.5,1.7-4.2,2.9l-1-1c-0.2-0.2-0.5-0.2-0.7,0s-0.2,0.5,0,0.7l0.8,0.8c-1.1,0.7-2.4,1.6-3.8,2.6l-0.6-0.6  c-0.2-0.2-0.5-0.2-0.7,0c-0.2,0.2-0.2,0.5,0,0.7l0.5,0.5c-2.9,2-5.6,4.1-5.6,4.1c-0.4,0.4-1.3,0.8-1.6,0.5c-0.2-0.2,0.1-1.1,0.5-1.6  c0,0,4.9-5.5,6.5-8.2l0.5,0.5c0.2,0.2,0.5,0.2,0.7,0s0.2-0.5,0-0.7l-0.7-0.7c1.2-1.7,1.6-2.6,2.8-4.3l1.4,1.4c0.2,0.2,0.5,0.2,0.7,0  s0.2-0.5,0-0.7l-1.5-1.5c0.6-0.8,1-1.4,1.6-2c0,0,1.8-0.4,3.9,1.7S19.9,10.1,19.9,10.1z"/></svg>