<?xml version="1.0" ?><!DOCTYPE svg  PUBLIC '-//W3C//DTD SVG 1.1//EN'  'http://www.w3.org/Graphics/SVG/1.1/DTD/svg11.dtd'><svg enable-background="new 0 0 24 24" id="Layer_1" version="1.1" viewBox="0 0 24 24" xml:space="preserve" xmlns="http://www.w3.org/2000/svg" xmlns:xlink="http://www.w3.org/1999/xlink"><g><path d="M22,5c0-2.2-1.8-4-4-4c-0.8,0-1.6,0.3-2.3,0.7C14.8,0.7,13.5,0,12,0S9.2,0.7,8.3,1.7C7.6,1.3,6.8,1,6,1C3.8,1,2,2.8,2,5   c0,1.8,1.2,3.4,2.9,3.8l5.3,13.7C10.5,23.5,11,24,12,24s1.5-0.5,1.8-1.5l5.2-13.7C20.8,8.4,22,6.8,22,5z M12,1c2.2,0,4,1.8,4,4   c0,1.2-0.5,2.3-1.4,3H12h-1H9.4C8.5,7.3,8,6.2,8,5C8,2.8,9.8,1,12,1z M3,5c0-1.7,1.3-3,3-3c0.6,0,1.2,0.2,1.7,0.5   C7.3,3.3,7,4.1,7,5c0,1.1,0.4,2.2,1,3H6h0C4.3,8,3,6.7,3,5z M12,22l-3.7-9h7.5L12,22z M16.1,12H7.9l-0.7-2h9.5L16.1,12z M18,8h-2   c0.6-0.8,1-1.9,1-3c0-0.9-0.3-1.7-0.7-2.5C16.8,2.2,17.4,2,18,2c1.7,0,3,1.3,3,3S19.7,8,18,8z"/><path d="M14,5h1c0-1.7-1.3-3-3-3v1C13.1,3,14,3.9,14,5z"/></g></svg>