<?xml version="1.0" ?><!DOCTYPE svg  PUBLIC '-//W3C//DTD SVG 1.1//EN'  'http://www.w3.org/Graphics/SVG/1.1/DTD/svg11.dtd'><svg enable-background="new 0 0 24 24" id="Layer_1" version="1.1" viewBox="0 0 24 24" xml:space="preserve" xmlns="http://www.w3.org/2000/svg" xmlns:xlink="http://www.w3.org/1999/xlink"><path d="M16,5.2C15.7,5,15,4.6,15,3V0H8v3c0,1.6-0.7,2-1,2.1c-3,1.6-5,4.7-5,8.4c0,4.4,3,8.1,7,9.2v0.8C9,23.8,9.2,24,9.5,24  s0.5-0.2,0.5-0.5v-0.6c0.3,0.1,0.7,0.1,1,0.1v0.5c0,0.3,0.2,0.5,0.5,0.5s0.5-0.2,0.5-0.5V23c0.3,0,0.7-0.1,1-0.1v0.6  c0,0.3,0.2,0.5,0.5,0.5s0.5-0.2,0.5-0.5v-0.8c4-1.1,7-4.8,7-9.2C21,9.9,19,6.8,16,5.2z M14.8,20.2c1.4-1.7,2.2-3.9,2.2-6.2  c0-2.1-0.7-4.1-1.8-5.7c-0.1-0.1-0.4-0.5-0.8-0.2c-0.3,0.2-0.2,0.5,0,0.8C15.5,10.3,16,12,16,14c0,2.8-1.2,5.2-3.2,6.9  c-0.3,0-0.5,0.1-0.8,0.1V8.5C12,8.2,11.8,8,11.5,8S11,8.2,11,8.5V21c-0.3,0-0.5,0-0.8-0.1C8.2,19.2,7,16.8,7,14c0-2,0.5-3.6,1.6-5.1  c0.2-0.3,0.3-0.5,0-0.8C8.3,7.8,7.8,8.3,7.7,8.4C6.6,10,6,11.9,6,14c0,2.4,0.8,4.5,2.2,6.2C5.7,19,4,16.5,4,13.5  c0-3.1,1.9-5.8,4.7-6.9C9.1,6.4,10,5.5,10,4V2h3v2c0,1.5,0.9,2.4,1.3,2.5c2.8,1.1,4.7,3.8,4.7,7C19,16.5,17.3,19,14.8,20.2z"/></svg>