<?xml version="1.0" ?><!DOCTYPE svg  PUBLIC '-//W3C//DTD SVG 1.1//EN'  'http://www.w3.org/Graphics/SVG/1.1/DTD/svg11.dtd'><svg enable-background="new 0 0 24 24" id="Layer_1" version="1.1" viewBox="0 0 24 24" xml:space="preserve" xmlns="http://www.w3.org/2000/svg" xmlns:xlink="http://www.w3.org/1999/xlink"><g><path d="M7,13c-1.1,0-2,0.9-2,2s0.9,2,2,2s2-0.9,2-2S8.1,13,7,13z M7,16c-0.6,0-1-0.4-1-1s0.4-1,1-1s1,0.4,1,1S7.6,16,7,16z"/><path d="M14.5,17c-0.8,0-1.5,0.7-1.5,1.5s0.7,1.5,1.5,1.5s1.5-0.7,1.5-1.5S15.3,17,14.5,17z M14.5,19c-0.3,0-0.5-0.2-0.5-0.5   s0.2-0.5,0.5-0.5s0.5,0.2,0.5,0.5S14.8,19,14.5,19z"/><path d="M18.5,9C19.3,9,20,8.3,20,7.5S19.3,6,18.5,6S17,6.7,17,7.5S17.7,9,18.5,9z M18.5,7C18.8,7,19,7.2,19,7.5S18.8,8,18.5,8   S18,7.8,18,7.5S18.2,7,18.5,7z"/><path d="M21.1,1c0,0-0.3-0.6-1-0.9c-0.8-0.4-2,0.3-2,0.3l-1.5,0.8c0.2,0.2,0.3,0.4,0.4,0.6l0,0c0,0,0,0.1,0,0.1c0,0.6-0.4,1-1,1   c-0.1,0-0.2,0-0.3-0.1c0,0-0.1,0-0.1,0c-0.1,0-0.2-0.1-0.2-0.1c0,0-0.1-0.1-0.1-0.1C15.1,2.5,15,2.3,15,2.1L0,9.9V23   c0,0.6,0.4,1,1,1h2h2c0-0.6,0.4-1,1-1s1,0.4,1,1h2h14c0.6,0,1-0.4,1-1c0,0,0-11.6,0-13C24,10,24,5,21.1,1z M14.4,4.5   C14.9,4.8,15.4,5,16,5c1.5,0,2.8-1.2,3-2.7l0.4-0.2C20.8,4.3,22,7.3,22,10h-6.3c-0.3-0.6-1-1-1.7-1s-1.4,0.4-1.7,1H3.2L14.4,4.5z    M15,11c0,0.6-0.4,1-1,1s-1-0.4-1-1s0.4-1,1-1S15,10.4,15,11z M22,22H8.2c-0.5-0.6-1.3-1-2.2-1s-1.7,0.4-2.2,1H2V11h10   c0,1.1,0.9,2,2,2s2-0.9,2-2h6v2c-1.7,0-3,1.3-3,3s1.3,3,3,3V22z M22,17c-0.6,0-1-0.4-1-1s0.4-1,1-1s1,0.4,1,1S22.6,17,22,17z"/></g></svg>