<?xml version="1.0" ?><svg enable-background="new 0 0 800 800" id="Layer_1" version="1.1" viewBox="0 0 800 800" xml:space="preserve" xmlns="http://www.w3.org/2000/svg" xmlns:xlink="http://www.w3.org/1999/xlink"><g><path d="M566.4,437.3L566.4,437.3c44.8-44.8,68.3-103.5,68.3-166.4s-24.5-121.6-68.3-166.4C521.6,59.7,462.9,36.3,400,36.3   s-121.6,24.5-166.4,68.3c-44.8,44.8-68.3,103.5-68.3,166.4s24.5,121.6,68.3,166.4l0,0c32,32,50.1,74.7,50.1,120.5   c0,18.1,13.9,32,32,32h167.5c8.5,0,17.1-3.2,22.4-9.6c6.4-6.4,9.6-13.9,9.6-22.4C516.3,513.1,533.3,470.4,566.4,437.3L566.4,437.3z    M520.5,392.5c-36.3,36.3-59.7,83.2-66.1,134.4h-16l40.5-195.2c3.2-17.1-7.5-34.1-24.5-38.4c-17.1-3.2-34.1,7.5-38.4,24.5   l-18.1,87.5l-20.3-88.5c-4.3-17.1-21.3-27.7-38.4-23.5s-27.7,21.3-23.5,38.4l44.8,194.1h-14.9c-6.4-50.1-29.9-97.1-66.1-134.4l0,0   c-32-32-50.1-74.7-50.1-120.5s18.1-88.5,50.1-120.5s74.7-50.1,120.5-50.1s88.5,18.1,120.5,50.1s50.1,74.7,50.1,120.5   C570.7,317.9,552.5,360.5,520.5,392.5L520.5,392.5z"/><path d="M522.7,640c0-18.1-13.9-32-32-32H309.3c-18.1,0-32,13.9-32,32c0,18.1,13.9,32,32,32h181.3C508.8,672,522.7,657.1,522.7,640   z"/><path d="M464,688H330.7c-18.1,0-32,13.9-32,32s13.9,32,32,32H464c18.1,0,32-13.9,32-32S482.1,688,464,688z"/></g></svg>