<?xml version="1.0" ?><svg enable-background="new 0 0 800 800" id="Layer_1" version="1.1" viewBox="0 0 800 800" xml:space="preserve" xmlns="http://www.w3.org/2000/svg" xmlns:xlink="http://www.w3.org/1999/xlink"><g><path d="M37.3,416v104.5c0,18.1,13.9,32,32,32h43.7c12.8,37.3,49.1,64,90.7,64c39.5,0,73.6-23.5,88.5-57.6h218.7   c14.9,34.1,49.1,57.6,88.5,57.6c41.6,0,76.8-26.7,90.7-64h43.7c18.1,0,32-13.9,32-32V416c0-24.5-9.6-46.9-26.7-64l0,0l0,0l0,0   l-71.5-71.5l0,0l-60.8-60.8c-21.3-21.3-50.1-33.1-80-33.1H336c-43.7,0-84.3,25.6-102.4,66.1l0,0l-34.1,73.6H128   C77.9,325.3,37.3,365.9,37.3,416z M202.7,551.5c-17.1,0-32-13.9-32-32c0-17.1,13.9-32,32-32c17.1,0,32,13.9,32,32   C234.7,537.6,220.8,551.5,202.7,551.5z M597.3,551.5c-17.1,0-32-13.9-32-32c0-17.1,13.9-32,32-32c17.1,0,32,13.9,32,32   C629.3,537.6,614.4,551.5,597.3,551.5z M449.1,250.7h74.7c12.8,0,25.6,5.3,35.2,14.9l60.8,60.8H449.1V250.7z M291.2,279.5   L291.2,279.5c8.5-17.1,25.6-28.8,44.8-28.8h49.1v75.7H269.9L291.2,279.5z M219.7,389.3L219.7,389.3   C220.8,389.3,220.8,389.3,219.7,389.3h197.3H672c7.5,0,13.9,3.2,18.1,7.5l0,0c5.3,5.3,7.5,11.7,7.5,18.1v72.5h-11.7   c-12.8-37.3-49.1-64-90.7-64c-43.7,0-81.1,29.9-91.7,69.3h-208c-11.7-40.5-48-69.3-91.7-69.3c-41.6,0-76.8,26.7-90.7,64h-11.7V416   c0-13.9,11.7-25.6,25.6-25.6h92.8V389.3z"/></g></svg>