<?xml version="1.0" ?><svg enable-background="new 0 0 800 800" id="Layer_1" version="1.1" viewBox="0 0 800 800" xml:space="preserve" xmlns="http://www.w3.org/2000/svg" xmlns:xlink="http://www.w3.org/1999/xlink"><g><path d="M526.9,302.9c-6.4-29.9-18.1-54.4-34.1-73.6C567.5,194.1,618.7,119.5,618.7,32c0-18.1-13.9-32-32-32   C525.9,0,471.5,24.5,432,64V48c0-18.1-13.9-32-32-32c-18.1,0-32,13.9-32,32v142.9c-49.1,11.7-83.2,52.3-94.9,112   c-9.6,50.1-18.1,70.4-48,101.3c-42.7,43.7-69.3,88.5-69.3,170.7c0,130.1,103.5,224,245.3,224s245.3-93.9,245.3-224   c0-83.2-26.7-126.9-69.3-170.7C545.1,374.4,537.6,353.1,526.9,302.9z M550.4,68.3c-13.9,56.5-57.6,100.3-114.1,114.1   C450.1,125.9,493.9,82.1,550.4,68.3z M400,736c-106.7,0-181.3-66.1-181.3-160c0-62.9,17.1-90.7,51.2-125.9   c41.6-42.7,53.3-75.7,65.1-134.4c6.4-29.9,22.4-65.1,65.1-65.1s58.7,35.2,65.1,65.1c11.7,58.7,23.5,91.7,65.1,134.4   c35.2,36.3,51.2,64,51.2,125.9C581.3,669.9,506.7,736,400,736z"/></g></svg>