<?xml version="1.0" ?><svg id="svg8" version="1.1" viewBox="0 0 33.866666 33.866668" xmlns="http://www.w3.org/2000/svg" xmlns:svg="http://www.w3.org/2000/svg" xmlns:xlink="http://www.w3.org/1999/xlink"><defs id="defs2"><clipPath clipPathUnits="userSpaceOnUse" id="clipPath5292"><ellipse cx="554.68481" cy="1234.8002" id="ellipse5294" rx="46.906162" ry="46.90797" style="display:inline;opacity:0.469;fill:#ffaaaa;fill-rule:evenodd;stroke:#333333;stroke-width:3.5625;stroke-linecap:round;stroke-linejoin:round;stroke-miterlimit:4;stroke-dasharray:none;stroke-dashoffset:6.5999999;stroke-opacity:1"/></clipPath><clipPath clipPathUnits="userSpaceOnUse" id="clipPath6174"><ellipse cx="128.2972" cy="1416.0679" id="ellipse6176" rx="55.76445" ry="55.766594" style="display:inline;opacity:0.572;fill:#ff9696;fill-opacity:1;fill-rule:evenodd;stroke:#333333;stroke-width:4.21448183;stroke-linecap:round;stroke-linejoin:round;stroke-miterlimit:4;stroke-dasharray:none;stroke-dashoffset:6.5999999;stroke-opacity:1"/></clipPath><clipPath clipPathUnits="userSpaceOnUse" id="clipPath5123"><ellipse cx="68.499504" cy="1656.6876" id="ellipse5125" rx="71.409416" ry="71.223892" style="display:inline;opacity:0.45199998;fill:#ffe680;fill-rule:evenodd;stroke:none;stroke-width:4.21448183;stroke-linecap:round;stroke-linejoin:round;stroke-miterlimit:4;stroke-dasharray:none;stroke-dashoffset:6.5999999;stroke-opacity:1"/></clipPath><clipPath clipPathUnits="userSpaceOnUse" id="clipPath8754"><ellipse cx="205.48343" cy="1298.3982" id="ellipse8756" rx="78.18396" ry="83.010139" style="display:inline;opacity:0.419;fill:#ffaaaa;fill-opacity:1;fill-rule:evenodd;stroke:#333333;stroke-width:4.21448183;stroke-linecap:round;stroke-linejoin:round;stroke-miterlimit:4;stroke-dasharray:none;stroke-dashoffset:6.5999999;stroke-opacity:1"/></clipPath><clipPath clipPathUnits="userSpaceOnUse" id="clipPath11474"><ellipse cx="230.12242" cy="1486.3468" id="ellipse11476" rx="55.76445" ry="55.766594" style="display:inline;opacity:0.32099998;fill:#efb5e3;fill-opacity:1;fill-rule:evenodd;stroke:none;stroke-width:4.21448183;stroke-linecap:round;stroke-linejoin:round;stroke-miterlimit:4;stroke-dasharray:none;stroke-dashoffset:6.5999999;stroke-opacity:1"/></clipPath><clipPath clipPathUnits="userSpaceOnUse" id="clipPath5143"><ellipse cx="209.94763" cy="1573.1123" id="ellipse5145" rx="55.764446" ry="55.766594" style="display:inline;opacity:0.43500001;fill:#ffaaaa;fill-rule:evenodd;stroke:#333333;stroke-width:4.21448183;stroke-linecap:round;stroke-linejoin:round;stroke-miterlimit:4;stroke-dasharray:none;stroke-dashoffset:6.5999999;stroke-opacity:1"/></clipPath></defs><g id="layer1" transform="translate(0,-263.13332)"><g id="g6401" transform="matrix(0.30044954,0,0,0.30044954,-157.83177,-79.393081)"><path d="m 581.80859,1181.0156 c -10.60606,0.073 -19.10639,4.0976 -24.27343,11.1465 -5.16704,7.049 -7.09571,16.4396 -7.09571,27.25 -10e-6,10.9918 2.74833,19.5074 8.54688,25.0899 5.79854,5.5824 13.95733,7.6502 23.17969,7.6503 9.22239,0 17.23233,-2.0976 22.78515,-7.7421 5.55282,-5.6446 7.9668,-14.0824 7.9668,-24.9981 0,-10.9186 -2.34604,-20.3888 -7.60938,-27.3906 -5.26333,-7.0018 -13.60874,-11.0737 -23.5,-11.0059 z" id="path6082" style="fill:#000000;fill-rule:evenodd;stroke:none;stroke-width:3.31746912;stroke-linecap:round;stroke-linejoin:round;stroke-miterlimit:4;stroke-dasharray:none;stroke-opacity:1" xlink:href="#path5379"/><path d="M 591.38477,1145.6035 A 4.4144743,4.4144743 0 0 0 587,1149.5215 c -3.11043,27.6901 -5.23964,24.5132 -13.86328,40.4648 a 4.4144743,4.4144743 0 0 0 0.6543,5.1094 c 2.90261,3.1123 6.91717,4.6369 10.7539,4.5176 3.83673,-0.1193 7.47472,-1.67 10.58399,-4.0957 6.21853,-4.8515 10.57484,-13.4499 9.70312,-23.5547 -0.60557,-7.0197 -3.10771,-13.0747 -5.41601,-17.4375 -1.15416,-2.1814 -2.26987,-3.943 -3.10352,-5.1777 -0.41683,-0.6174 -0.76546,-1.1047 -1.00195,-1.4317 -0.11435,-0.1581 -0.20061,-0.2764 -0.24219,-0.334 0.003,0 0.0193,0.029 0.0234,0.035 a 4.4144743,4.4144743 0 0 0 -3.70703,-2.0137 z m 3.73046,2.0527 c 0.0196,0.029 0.0286,0.041 0.0781,0.125 0.0183,0.031 0.0595,0.1124 0.0859,0.1602 a 4.4144743,4.4144743 0 0 0 -0.16407,-0.2852 z m 0.22266,0.3985 c 0.0164,0.033 0.0192,0.032 0.0391,0.074 0.0178,0.038 0.0469,0.1189 0.0684,0.168 a 4.4144743,4.4144743 0 0 0 -0.10742,-0.2422 z m 0.18164,0.4219 c 0.014,0.037 0.0218,0.046 0.0371,0.09 0.003,0.01 0.006,0.039 0.01,0.051 a 4.4144743,4.4144743 0 0 0 -0.0469,-0.1406 z" id="path6074" style="fill:#000000;fill-opacity:1;fill-rule:evenodd;stroke:none;stroke-width:3.31746912;stroke-linecap:round;stroke-linejoin:round;stroke-miterlimit:4;stroke-dasharray:none;stroke-opacity:1" xlink:href="#path5369"/><path d="m 578.80469,1140.6621 a 4.4447808,4.4447808 0 0 0 -4.56641,4.5742 c 0.43693,14.6667 -7.17846,33.8574 0.26367,54.3282 a 4.4447808,4.4447808 0 0 0 7.83203,1.0117 c 4.2146,-6.0885 8.58497,-13.6306 9.62891,-23.252 1.04394,-9.6214 -1.34625,-21.0266 -9.47656,-34.5156 a 4.4447808,4.4447808 0 0 0 -3.68164,-2.1465 z" id="path6072" style="fill:#000000;fill-opacity:1;fill-rule:evenodd;stroke:none;stroke-width:3.31746912;stroke-linecap:round;stroke-linejoin:round;stroke-miterlimit:4;stroke-dasharray:none;stroke-opacity:1" xlink:href="#path5375"/><path d="m 569.92773,1146.4277 a 4.4704859,4.4704859 0 0 0 -3.85937,2.5703 c 0.0281,-0.059 0.0557,-0.1181 0.0664,-0.1386 -0.03,0.053 -0.0887,0.1549 -0.16993,0.2988 -0.17398,0.3082 -0.43222,0.7715 -0.74414,1.3594 -0.62384,1.1758 -1.46738,2.8608 -2.36328,4.9609 -1.7918,4.2003 -3.80855,10.0696 -4.7168,16.9688 -1.33817,10.165 3.14748,18.9942 9.53711,24.0039 3.19482,2.5048 6.92081,4.1353 10.85352,4.3652 3.93271,0.2299 8.10674,-1.1449 11.17969,-4.2324 a 4.4704859,4.4704859 0 0 0 0.76367,-5.2793 c -4.53531,-8.3882 -7.92693,-11.9787 -10.21289,-16.3535 -2.28597,-4.3748 -4.10316,-10.3015 -5.70508,-24.5606 a 4.4704859,4.4704859 0 0 0 -4.62891,-3.9629 z m -3.88671,2.627 a 4.4704859,4.4704859 0 0 0 -0.14454,0.3691 c 0.005,-0.013 0.0112,-0.04 0.0156,-0.053 0.0623,-0.1718 0.10006,-0.2529 0.12891,-0.3164 z m -0.17969,0.4765 a 4.4704859,4.4704859 0 0 0 -0.0723,0.254 c 0.003,-0.013 0.005,-0.037 0.008,-0.047 0.026,-0.097 0.0434,-0.1432 0.0644,-0.2071 z" id="path6078" style="fill:#000000;fill-opacity:1;fill-rule:evenodd;stroke:none;stroke-width:3.31746912;stroke-linecap:round;stroke-linejoin:round;stroke-miterlimit:4;stroke-dasharray:none;stroke-opacity:1" xlink:href="#path5373"/><path d="m 577.0193,1192.0855 c 8.37084,-15.484 11.22298,-14.0712 14.36828,-42.0717 0.009,0.1284 7.97935,9.9657 9.04585,22.3284 1.48807,17.2494 -15.07064,28.6896 -23.41413,19.7433 z" id="path5369" style="fill:#89a02c;fill-opacity:1;fill-rule:evenodd;stroke:none;stroke-width:3.5625;stroke-linecap:round;stroke-linejoin:round;stroke-miterlimit:4;stroke-dasharray:none;stroke-opacity:1"/><path d="m 586.5431,1193.4321 c -8.67071,-16.0368 -13.16912,-13.5441 -16.4271,-42.5443 -0.009,0.133 -5.8672,9.4026 -7.54456,22.1441 -2.24973,17.0893 15.22811,29.1851 23.97166,20.4002 z" id="path5373" style="fill:#89a02c;fill-opacity:1;fill-rule:evenodd;stroke:none;stroke-width:3.5625;stroke-linecap:round;stroke-linejoin:round;stroke-miterlimit:4;stroke-dasharray:none;stroke-opacity:1"/><path d="m 578.67899,1198.0464 c -6.7766,-18.6401 0.47963,-36.8427 0,-52.9426 15.53184,25.7689 8.11012,41.2265 0,52.9426 z" id="path5375" style="fill:#89a02c;fill-opacity:1;fill-rule:evenodd;stroke:none;stroke-width:3.5625;stroke-linecap:round;stroke-linejoin:round;stroke-miterlimit:4;stroke-dasharray:none;stroke-opacity:1"/><path d="m 608.13083,1219.4125 c 1e-5,20.4369 -8.92749,27.9524 -25.96408,27.9524 -17.03656,-2e-4 -26.94074,-7.5155 -26.94072,-27.9524 0,-20.4368 7.58125,-33.4791 26.61518,-33.6097 17.32221,-0.1188 26.28962,13.1729 26.28962,33.6097 z" id="path5379" style="fill:#ffb380;fill-rule:evenodd;stroke:none;stroke-width:3.5625;stroke-linecap:round;stroke-linejoin:round;stroke-miterlimit:4;stroke-dasharray:none;stroke-opacity:1"/><path d="m 574.40955,1192.6189 c 1.06979,-0.8727 3.13813,-0.2913 5.6565,0.8833 2.35277,1.0974 6.01665,3.1645 9.3767,5.7135 -3e-5,-10e-5 0.0652,0.05 0.0652,0.05 3.66376,2.7031 6.53564,5.6627 8.22839,8.6048 1.64635,2.8614 1.809,5.1059 0.73566,5.9805 -1.06621,0.8688 -3.12461,0.2944 -5.62972,-0.8611 -2.33605,-1.0775 -6.00344,-3.1187 -9.3609,-5.66 5e-5,0 -0.0663,-0.049 -0.0662,-0.049 -3.69143,-2.7179 -6.57347,-5.7075 -8.26613,-8.6572 -1.64849,-2.8726 -1.81524,-5.1271 -0.73946,-6.0046 z" id="path6208" style="opacity:0.469;fill:#000000;fill-opacity:0;fill-rule:evenodd;stroke:none;stroke-width:3.5625;stroke-linecap:butt;stroke-linejoin:round;stroke-miterlimit:4;stroke-dasharray:none;stroke-dashoffset:0;stroke-opacity:1"/><path d="m 587.66318,1193.005 c 0.32795,0.5193 -1.05972,1.9784 -3.25048,4.1637 -0.35444,0.3536 -7.07693,7.0312 -8.68002,8.5788 -3.63138,3.5055 -6.68723,6.1627 -9.57228,8.0981 -2.71429,1.8208 -4.64545,2.5424 -5.00447,2.0637 -0.36482,-0.4864 0.88821,-2.0694 2.97856,-4.4037 1.761,-1.9664 5.39635,-5.881 8.55273,-8.9181 3.6497,-3.5117 6.8777,-6.0977 9.84407,-7.8583 2.81952,-1.6735 4.8149,-2.2262 5.13189,-1.7242 z" id="path6319" style="opacity:1;vector-effect:none;fill:#000000;fill-opacity:1;fill-rule:evenodd;stroke:none;stroke-width:0.9375px;stroke-linecap:butt;stroke-linejoin:miter;stroke-miterlimit:4;stroke-dasharray:none;stroke-dashoffset:0;stroke-opacity:1"/><path d="m 574.1522,1192.4903 c 0.40157,-0.406 2.24172,0.7504 5.04242,2.6775 2.08903,1.4374 7.35713,5.1392 10.86255,7.7717 -5e-5,0 0.0694,0.052 0.0693,0.052 4.36215,3.2679 7.70933,6.1144 10.24446,8.8327 2.39404,2.567 3.51157,4.4648 3.11935,4.857 -0.40288,0.4029 -2.22616,-0.7572 -5.007,-2.6792 -1.99381,-1.378 -7.39304,-5.1757 -10.80942,-7.7393 7e-5,10e-5 -0.0695,-0.052 -0.0694,-0.052 -4.37525,-3.275 -7.74621,-6.1382 -10.29583,-8.8555 -2.41156,-2.5701 -3.54779,-4.4693 -3.15643,-4.865 z" id="path6323" style="opacity:1;vector-effect:none;fill:#000000;fill-opacity:1;fill-rule:evenodd;stroke:none;stroke-width:0.9375px;stroke-linecap:butt;stroke-linejoin:miter;stroke-miterlimit:4;stroke-dasharray:none;stroke-dashoffset:0;stroke-opacity:1"/><path d="m 596.64995,1202.5955 c 0.32124,0.5185 -1.45507,2.1817 -4.22532,4.7829 -2.78211,2.6123 -6.5513,6.2886 -10.867,10.3161 3e-5,0 -0.038,0.035 -0.0379,0.035 -4.52018,4.2361 -8.11025,7.3809 -11.62126,9.8077 -3.25056,2.2468 -5.53414,3.204 -5.8845,2.7279 -0.35746,-0.4857 1.26305,-2.3 3.90204,-5.0587 2.05257,-2.1457 6.92958,-7.1723 10.64026,-10.6424 -3e-5,0 0.038,-0.036 0.0379,-0.036 4.52502,-4.2487 8.35466,-7.3596 11.97626,-9.5862 3.39588,-2.0879 5.77136,-2.8443 6.07952,-2.347 z" id="path6327" style="opacity:1;vector-effect:none;fill:#000000;fill-opacity:1;fill-rule:evenodd;stroke:none;stroke-width:1.14336133px;stroke-linecap:butt;stroke-linejoin:miter;stroke-miterlimit:4;stroke-dasharray:none;stroke-dashoffset:0;stroke-opacity:1"/><path d="m 566.0548,1202.5955 c 0.34084,-0.5501 2.74683,0.1602 6.1752,2.2213 3.64293,2.19 7.51819,5.3076 12.0335,9.5486 2e-5,0 0.0379,0.036 0.0379,0.036 3.81615,3.5684 8.46508,8.4166 10.58964,10.6855 2.60762,2.7849 4.19352,4.6439 3.79974,5.179 -0.38707,0.526 -2.70449,-0.3875 -5.9868,-2.6076 -3.5261,-2.385 -7.17009,-5.5454 -11.67188,-9.7646 -2e-5,0 -0.0379,-0.035 -0.0379,-0.035 -1.46128,-1.3633 -10.88453,-10.4255 -10.80976,-10.3538 -2.73818,-2.6273 -4.48315,-4.3381 -4.12964,-4.9086 z" id="path6331" style="opacity:1;vector-effect:none;fill:#000000;fill-opacity:1;fill-rule:evenodd;stroke:none;stroke-width:1.14336133px;stroke-linecap:butt;stroke-linejoin:miter;stroke-miterlimit:4;stroke-dasharray:none;stroke-dashoffset:0;stroke-opacity:1"/><path d="m 561.30285,1219.2335 c 0.8156,-0.9708 7.61911,3.6578 15.17713,10.2881 0.28037,0.2459 0.55795,0.4911 0.83242,0.7351 0,0 0,0 0,0 7.10308,6.3115 12.17756,11.9458 11.5597,12.7246 -0.81389,1.0258 -7.18941,-3.2253 -14.41456,-9.4661 0,0 0,0 0,0 -0.27881,-0.2407 -0.55877,-0.4843 -0.83974,-0.7308 -7.54172,-6.6154 -13.04009,-12.6878 -12.31495,-13.5509 z" id="path6374" style="opacity:1;vector-effect:none;fill:#000000;fill-opacity:1;fill-rule:evenodd;stroke:none;stroke-width:0.9375px;stroke-linecap:butt;stroke-linejoin:miter;stroke-miterlimit:4;stroke-dasharray:none;stroke-dashoffset:0;stroke-opacity:1"/><path d="m 602.8842,1219.5065 c 0.78136,0.8969 -4.7589,7.4036 -12.79867,14.1794 -8.08355,6.8128 -15.62323,10.9629 -16.40837,9.8413 -0.6805,-0.9721 5.5333,-6.7409 13.41565,-13.3905 7.94084,-6.699 14.89119,-11.6635 15.79139,-10.6302 z" id="path6378" style="opacity:1;vector-effect:none;fill:#000000;fill-opacity:1;fill-rule:evenodd;stroke:none;stroke-width:0.9375px;stroke-linecap:butt;stroke-linejoin:miter;stroke-miterlimit:4;stroke-dasharray:none;stroke-dashoffset:0;stroke-opacity:1"/></g></g></svg>