<?xml version="1.0" ?><svg id="svg8" version="1.1" viewBox="0 0 33.866666 33.866668" xmlns="http://www.w3.org/2000/svg" xmlns:svg="http://www.w3.org/2000/svg" xmlns:xlink="http://www.w3.org/1999/xlink"><defs id="defs2"><clipPath clipPathUnits="userSpaceOnUse" id="clipPath5292"><ellipse cx="554.68481" cy="1234.8002" id="ellipse5294" rx="46.906162" ry="46.90797" style="display:inline;opacity:0.469;fill:#ffaaaa;fill-rule:evenodd;stroke:#333333;stroke-width:3.5625;stroke-linecap:round;stroke-linejoin:round;stroke-miterlimit:4;stroke-dasharray:none;stroke-dashoffset:6.5999999;stroke-opacity:1"/></clipPath><clipPath clipPathUnits="userSpaceOnUse" id="clipPath6174"><ellipse cx="128.2972" cy="1416.0679" id="ellipse6176" rx="55.76445" ry="55.766594" style="display:inline;opacity:0.572;fill:#ff9696;fill-opacity:1;fill-rule:evenodd;stroke:#333333;stroke-width:4.21448183;stroke-linecap:round;stroke-linejoin:round;stroke-miterlimit:4;stroke-dasharray:none;stroke-dashoffset:6.5999999;stroke-opacity:1"/></clipPath><clipPath clipPathUnits="userSpaceOnUse" id="clipPath5123"><ellipse cx="68.499504" cy="1656.6876" id="ellipse5125" rx="71.409416" ry="71.223892" style="display:inline;opacity:0.45199998;fill:#ffe680;fill-rule:evenodd;stroke:none;stroke-width:4.21448183;stroke-linecap:round;stroke-linejoin:round;stroke-miterlimit:4;stroke-dasharray:none;stroke-dashoffset:6.5999999;stroke-opacity:1"/></clipPath><clipPath clipPathUnits="userSpaceOnUse" id="clipPath8754"><ellipse cx="205.48343" cy="1298.3982" id="ellipse8756" rx="78.18396" ry="83.010139" style="display:inline;opacity:0.419;fill:#ffaaaa;fill-opacity:1;fill-rule:evenodd;stroke:#333333;stroke-width:4.21448183;stroke-linecap:round;stroke-linejoin:round;stroke-miterlimit:4;stroke-dasharray:none;stroke-dashoffset:6.5999999;stroke-opacity:1"/></clipPath><clipPath clipPathUnits="userSpaceOnUse" id="clipPath11474"><ellipse cx="230.12242" cy="1486.3468" id="ellipse11476" rx="55.76445" ry="55.766594" style="display:inline;opacity:0.32099998;fill:#efb5e3;fill-opacity:1;fill-rule:evenodd;stroke:none;stroke-width:4.21448183;stroke-linecap:round;stroke-linejoin:round;stroke-miterlimit:4;stroke-dasharray:none;stroke-dashoffset:6.5999999;stroke-opacity:1"/></clipPath><clipPath clipPathUnits="userSpaceOnUse" id="clipPath5143"><ellipse cx="209.94763" cy="1573.1123" id="ellipse5145" rx="55.764446" ry="55.766594" style="display:inline;opacity:0.43500001;fill:#ffaaaa;fill-rule:evenodd;stroke:#333333;stroke-width:4.21448183;stroke-linecap:round;stroke-linejoin:round;stroke-miterlimit:4;stroke-dasharray:none;stroke-dashoffset:6.5999999;stroke-opacity:1"/></clipPath></defs><g id="layer1" transform="translate(0,-263.13332)"><g id="g6441" transform="matrix(0.2771916,0,0,0.2771916,-173.82883,-85.840909)"><g id="g6393" transform="translate(115.00839,-18.925431)"><path d="m 573.69531,1278.2578 a 5.0762608,5.0762608 0 0 0 -4.98047,3.7012 c -1.84361,6.5709 -4.02927,10.2123 -5.56836,15.0918 -0.16606,0.5265 -0.25198,1.1128 -0.38671,1.6621 -1.19366,-1.5106 -2.35074,-3.2272 -3.46485,-5.3945 a 5.0762608,5.0762608 0 0 0 -9.58398,2.0996 c -0.8222,18.8785 9.37875,30.9396 19.92773,40.5722 a 5.0762608,5.0762608 0 0 0 7.09571,-0.2461 c 7.20849,-7.5656 12.08676,-13.1512 15.13281,-19.4472 3.04604,-6.2961 3.86936,-12.9898 3.43359,-21.4239 a 5.0762608,5.0762608 0 0 0 -9.47461,-2.2578 c -1.23846,2.1652 -2.21469,3.6697 -3.24219,5.3438 -1.28903,-4.692 -2.99791,-9.079 -3.96484,-15.3965 a 5.0762608,5.0762608 0 0 0 -4.92383,-4.3047 z" id="path6353" style="fill:#000000;fill-rule:evenodd;stroke:none;stroke-width:3.56249976;stroke-linecap:round;stroke-linejoin:round;stroke-miterlimit:4;stroke-dasharray:none;stroke-opacity:1" xlink:href="#path5462"/><path d="m 572.65234,1309.1211 c -13.22459,0.4838 -26.60678,4.4774 -34.5332,13.7637 -4.92066,5.7648 -5.71073,13.3103 -4.70312,20.3379 1.00761,7.0276 3.72033,14.0458 6.86718,20.5449 6.29371,12.9981 14.42504,23.8212 15.79492,25.6113 3.55412,4.6442 8.33329,9.1739 15.07032,10.1602 6.73703,0.9862 13.97621,-2.595 19.89062,-10.0918 1.18782,-1.5057 3.29316,-4.5695 6.18946,-9.3477 2.89629,-4.7782 6.33,-10.9582 9.27148,-17.6641 2.94148,-6.7058 5.42296,-13.9086 6.23438,-21.0312 0.81141,-7.1226 -0.1093,-14.64 -5.0586,-20.3535 -8.13961,-9.3965 -21.79854,-12.4136 -35.02344,-11.9297 z" id="path6355" style="fill:#000000;fill-rule:evenodd;stroke:none;stroke-width:3.56249976;stroke-linecap:round;stroke-linejoin:round;stroke-miterlimit:4;stroke-dasharray:none;stroke-opacity:1" xlink:href="#path5464"/><path d="m 589.04688,1293.2871 a 5.5251253,5.5251253 0 0 0 -4.53907,2.4395 c -8.3668,12.4309 -5.54984,25.3989 -1.67969,36.1621 a 5.5251253,5.5251253 0 0 0 6.37891,3.5273 c 8.12843,-1.7777 13.91409,-3.2668 18.86133,-6.1914 4.94724,-2.9246 8.4648,-7.2916 11.50976,-13.0508 a 5.5251253,5.5251253 0 0 0 -7.34374,-7.5293 c -0.87072,0.4329 -1.44063,0.6533 -2.18555,1.0157 0.59987,-2.7483 1.17208,-5.4779 2.43359,-8.6856 a 5.5251253,5.5251253 0 0 0 -8.80078,-6.1582 c -3.33882,2.9544 -5.9961,4.3776 -8.87109,6.5859 -0.0756,-0.8085 -0.21543,-1.5434 -0.19532,-2.4726 a 5.5251253,5.5251253 0 0 0 -5.56835,-5.6426 z" id="path6357" style="fill:#000000;fill-rule:evenodd;stroke:none;stroke-width:3.56249976;stroke-linecap:round;stroke-linejoin:round;stroke-miterlimit:4;stroke-dasharray:none;stroke-opacity:1" xlink:href="#path5458"/><path d="m 588.02682,1330.0195 c 15.99409,-3.4979 21.06314,-5.8307 26.6661,-16.428 -5.7207,2.8441 -8.68465,4.2106 -16.89479,6.6211 7.71587,-5.0113 5.49129,-10.9546 9.54418,-21.2601 -8.32595,7.3673 -12.90802,6.3669 -15.68736,17.7133 0.90031,-5.1299 -2.74552,-9.4137 -2.56282,-17.8549 -7.13321,10.5981 -4.79255,20.8429 -1.06531,31.2086 z" id="path6359" style="fill:#abc837;fill-rule:evenodd;stroke:none;stroke-width:3.56249976;stroke-linecap:round;stroke-linejoin:round;stroke-miterlimit:4;stroke-dasharray:none;stroke-opacity:1"/><path d="m 556.79688,1294.6406 a 5.1523702,5.1523702 0 0 0 -5.03711,5.2598 c 0.0257,1.1895 -0.12838,2.1597 -0.25196,3.166 -3.05624,-2.4472 -5.84872,-3.8201 -9.43359,-6.9922 a 5.1523702,5.1523702 0 0 0 -8.20899,5.7422 c 1.38904,3.5319 1.9515,6.4809 2.6211,9.4824 -0.94888,-0.4547 -1.73896,-0.7721 -2.88477,-1.3418 a 5.1523702,5.1523702 0 0 0 -6.84765,7.0215 c 3.02854,5.7281 6.48804,10.0169 11.36914,12.9024 4.88109,2.8854 10.63043,4.3746 18.75,6.1503 a 5.1523702,5.1523702 0 0 0 5.94922,-3.291 c 3.86049,-10.7364 6.64488,-23.5209 -1.63868,-35.8281 a 5.1523702,5.1523702 0 0 0 -4.38671,-2.2715 z" id="path6361" style="fill:#000000;fill-rule:evenodd;stroke:none;stroke-width:3.56249976;stroke-linecap:round;stroke-linejoin:round;stroke-miterlimit:4;stroke-dasharray:none;stroke-opacity:1" xlink:href="#path5460"/><path d="m 557.97498,1330.9982 c -15.99409,-3.4979 -21.06314,-5.8307 -26.66611,-16.428 5.72071,2.8441 8.68465,4.2106 16.8948,6.621 -7.71587,-5.0112 -5.49129,-10.9546 -9.54418,-21.26 8.32595,7.3673 12.90802,6.3669 15.68735,17.7133 -0.9003,-5.1299 2.74553,-9.4137 2.56283,-17.8549 7.13321,10.5981 4.79255,20.8428 1.06531,31.2086 z" id="path6363" style="fill:#abc837;fill-rule:evenodd;stroke:none;stroke-width:3.56249976;stroke-linecap:round;stroke-linejoin:round;stroke-miterlimit:4;stroke-dasharray:none;stroke-opacity:1"/><path d="m 573.06062,1332.2419 c 14.24502,-14.9508 17.9998,-21.0965 17.17254,-37.1075 -4.10628,7.1788 -6.30023,10.7751 -13.23082,19.1567 4.80888,-11.0335 -1.16363,-16.3453 -3.40071,-30.9615 -3.97257,14.1588 -9.29654,16.1401 -5.10616,31.0824 -2.26025,-6.5122 -8.66141,-8.9451 -13.71363,-18.7734 -0.74289,17.0575 8.01882,27.2346 18.27878,36.6033 z" id="path6365" style="fill:#abc837;fill-rule:evenodd;stroke:none;stroke-width:3.56249976;stroke-linecap:round;stroke-linejoin:round;stroke-miterlimit:4;stroke-dasharray:none;stroke-opacity:1"/><path d="m 560.8066,1385.7591 c 6.10455,7.9768 15.25441,13.0578 25.55598,0 2.81593,-3.5694 30.73633,-44.7369 16.81314,-60.8099 -12.41363,-14.3304 -48.22833,-12.6073 -60.52732,1.8017 -13.84721,16.2229 15.77954,55.8999 18.1582,59.0082 z" id="path6367" style="fill:#ff5555;fill-rule:evenodd;stroke:none;stroke-width:3.56249976;stroke-linecap:round;stroke-linejoin:round;stroke-miterlimit:4;stroke-dasharray:none;stroke-opacity:1"/><path d="m 556.03488,1353.4658 c 0.68448,0.1466 0.66652,3.2191 2.11702,7.711 0.85678,2.5609 1.98113,5.2009 3.56787,8.2608 0.053,0.1021 0.10603,0.2039 0.15918,0.3054 1.65838,3.1486 3.23831,5.6608 4.83749,7.8966 2.64361,3.6096 4.7885,5.4073 4.48534,6.007 -0.35041,0.6932 -3.49355,-0.3032 -6.96379,-3.9165 -2.0514,-2.0987 -4.07294,-4.8128 -5.84075,-8.1469 -0.058,-0.1087 -0.11557,-0.218 -0.17286,-0.3279 -1.69356,-3.2481 -2.76319,-6.3719 -3.2981,-9.2562 -1.04478,-5.3672 0.36517,-8.6926 1.1086,-8.5333 z" id="path6369" style="opacity:1;fill:#000000;fill-opacity:1;fill-rule:evenodd;stroke:none;stroke-width:7.87778473;stroke-linecap:round;stroke-linejoin:round;stroke-miterlimit:4;stroke-dasharray:none;stroke-dashoffset:0;stroke-opacity:1"/></g><g id="g6405" style="fill:#000000;fill-opacity:1" transform="translate(559.3453,-132.02154)"><circle cx="152.03972" cy="1457.1008" id="circle6395" r="2.1843197" style="fill:#000000;fill-opacity:1;fill-rule:evenodd;stroke:none;stroke-width:3.56249976;stroke-linecap:butt;stroke-linejoin:miter;stroke-miterlimit:4;stroke-dasharray:none;stroke-opacity:1"/><circle cx="145.659" cy="1448.7051" id="circle6397" r="2.1843197" style="fill:#000000;fill-opacity:1;fill-rule:evenodd;stroke:none;stroke-width:3.56249976;stroke-linecap:butt;stroke-linejoin:miter;stroke-miterlimit:4;stroke-dasharray:none;stroke-opacity:1"/><circle cx="155.9017" cy="1449.2089" id="circle6399" r="2.1843197" style="fill:#000000;fill-opacity:1;fill-rule:evenodd;stroke:none;stroke-width:3.56249976;stroke-linecap:butt;stroke-linejoin:miter;stroke-miterlimit:4;stroke-dasharray:none;stroke-opacity:1"/><circle cx="148.84933" cy="1440.4774" id="circle6403" r="2.1843197" style="fill:#000000;fill-opacity:1;fill-rule:evenodd;stroke:none;stroke-width:3.56249976;stroke-linecap:butt;stroke-linejoin:miter;stroke-miterlimit:4;stroke-dasharray:none;stroke-opacity:1"/></g><g id="g6417" style="fill:#000000;fill-opacity:1" transform="matrix(-1,0,0,1,816.8564,-132.02154)"><circle cx="152.03972" cy="1457.1008" id="circle6407" r="2.1843197" style="fill:#000000;fill-opacity:1;fill-rule:evenodd;stroke:none;stroke-width:3.56249976;stroke-linecap:butt;stroke-linejoin:miter;stroke-miterlimit:4;stroke-dasharray:none;stroke-opacity:1"/><circle cx="145.659" cy="1448.7051" id="circle6409" r="2.1843197" style="fill:#000000;fill-opacity:1;fill-rule:evenodd;stroke:none;stroke-width:3.56249976;stroke-linecap:butt;stroke-linejoin:miter;stroke-miterlimit:4;stroke-dasharray:none;stroke-opacity:1"/><circle cx="155.9017" cy="1449.2089" id="circle6411" r="2.1843197" style="fill:#000000;fill-opacity:1;fill-rule:evenodd;stroke:none;stroke-width:3.56249976;stroke-linecap:butt;stroke-linejoin:miter;stroke-miterlimit:4;stroke-dasharray:none;stroke-opacity:1"/><circle cx="148.84933" cy="1440.4774" id="circle6415" r="2.1843197" style="fill:#000000;fill-opacity:1;fill-rule:evenodd;stroke:none;stroke-width:3.56249976;stroke-linecap:butt;stroke-linejoin:miter;stroke-miterlimit:4;stroke-dasharray:none;stroke-opacity:1"/></g></g></g></svg>