<?xml version="1.0" ?><!DOCTYPE svg  PUBLIC '-//W3C//DTD SVG 1.1 Tiny//EN'  'http://www.w3.org/Graphics/SVG/1.1/DTD/svg11-tiny.dtd'><svg baseProfile="tiny" id="Layer_1" overflow="scroll" version="1.1" viewBox="0 0 128 128" xml:space="preserve" xmlns="http://www.w3.org/2000/svg" xmlns:xlink="http://www.w3.org/1999/xlink"><g><g><path d="M59.4,48.5c2.8,1.8,6.4,1.8,9.2,0c1.8,2.1,4.5,3.1,7.2,2.7c3,0.5,6.7-0.2,11.1-2.8     c26,7.9-8,57.8-19.6,60.7c-2.2,0.5-4.4,0.5-6.6,0c-11.6-2.8-45.6-52.8-19.5-60.7c4.4,2.7,8.1,3.4,11.1,2.8     C54.9,51.5,57.6,50.5,59.4,48.5" fill="#E5165F" fill-rule="evenodd"/><path d="M64,18.5C33.5,60.3,94.5,60.3,64,18.5" fill="#278943" fill-rule="evenodd"/><path d="M47.2,20.7C36,49.9,53.1,55.7,59.4,48.5c-3.8-2.5-6-8.4-2.3-17.8     C54.8,27.6,51.6,24.3,47.2,20.7" fill="#7EB642" fill-rule="evenodd"/><path d="M28.9,37c9.7,12,17.9,15.2,23.3,14.2c-5.1-0.6-10.1-6-8.4-17.9     C39.7,33.6,34.8,34.7,28.9,37" fill="#278943" fill-rule="evenodd"/><path d="M80.7,20.7c-4.4,3.5-7.6,6.9-9.8,9.9c3.7,9.4,1.4,15.3-2.3,17.8     C74.9,55.7,92,49.9,80.7,20.7" fill="#7EB642" fill-rule="evenodd"/><path d="M99.1,37c-9.7,12-17.9,15.2-23.4,14.2c5.1-0.6,10-6,8.4-17.9     C88.3,33.6,93.2,34.7,99.1,37" fill="#278943" fill-rule="evenodd"/><path d="M46.2,59.4c1.7,0,3.1,1.4,3.1,3.1c0,1.7-1.4,3.1-3.1,3.1c-1.7,0-3.1-1.4-3.1-3.1     C43.1,60.7,44.5,59.4,46.2,59.4" fill="#A21B31" fill-rule="evenodd"/><path d="M60.9,65c1.7,0,3.1,1.4,3.1,3.1c0,1.7-1.4,3.1-3.1,3.1c-1.7,0-3.1-1.4-3.1-3.1     C57.8,66.3,59.2,65,60.9,65" fill="#A21B31" fill-rule="evenodd"/><path d="M80.8,57c1.7,0,3.1,1.4,3.1,3.1c0,1.7-1.4,3.1-3.1,3.1c-1.7,0-3.1-1.4-3.1-3.1     C77.7,58.4,79.1,57,80.8,57" fill="#A21B31" fill-rule="evenodd"/><path d="M75.6,77.1c1.7,0,3.1,1.4,3.1,3.1c0,1.7-1.4,3.1-3.1,3.1c-1.7,0-3.1-1.4-3.1-3.1     C72.5,78.5,73.9,77.1,75.6,77.1" fill="#A21B31" fill-rule="evenodd"/><path d="M51.6,80.8c1.7,0,3.1,1.4,3.1,3.1c0,1.7-1.4,3.1-3.1,3.1c-1.7,0-3.1-1.4-3.1-3.1     C48.6,82.2,49.9,80.8,51.6,80.8" fill="#A21B31" fill-rule="evenodd"/><path d="M65.7,92.4c1.7,0,3.1,1.4,3.1,3.1c0,1.7-1.4,3.1-3.1,3.1c-1.7,0-3.1-1.4-3.1-3.1     C62.6,93.8,64,92.4,65.7,92.4" fill="#A21B31" fill-rule="evenodd"/></g></g></svg>