<?xml version="1.0" ?><!DOCTYPE svg  PUBLIC '-//W3C//DTD SVG 1.1 Tiny//EN'  'http://www.w3.org/Graphics/SVG/1.1/DTD/svg11-tiny.dtd'><svg baseProfile="tiny" id="Layer_1" overflow="scroll" version="1.1" viewBox="0 0 128 128" xml:space="preserve" xmlns="http://www.w3.org/2000/svg" xmlns:xlink="http://www.w3.org/1999/xlink"><g><g><path d="M39.4,68.6c9.2,0,16.6,7.5,16.6,16.6c0,9.2-7.5,16.6-16.6,16.6     c-9.2,0-16.6-7.5-16.6-16.6C22.7,76.1,30.2,68.6,39.4,68.6" fill="#D73426" fill-rule="evenodd"/><path d="M88.6,70.9c9.2,0,16.6,7.5,16.6,16.6c0,9.2-7.5,16.6-16.6,16.6     c-9.2,0-16.6-7.5-16.6-16.6C72,78.3,79.4,70.9,88.6,70.9" fill="#D73426" fill-rule="evenodd"/><path d="M42.9,69.3c-0.3,1.1-1.5,1.7-2.6,1.4c-1.1-0.3-1.7-1.5-1.4-2.6c0-0.1,9.8-32.9,32.3-38.2     c1.1-0.3,2.2,0.4,2.5,1.5c0.3,1.1-0.4,2.2-1.5,2.5C52,38.6,42.9,69.2,42.9,69.3" fill="#278943"/><path d="M85,70.5c0.7,0.9,0.5,2.2-0.4,2.9c-0.9,0.7-2.2,0.5-2.9-0.4c-0.1-0.1-20.8-28.1-9.4-48.1     c0.6-1,1.8-1.3,2.8-0.8c1,0.6,1.3,1.8,0.8,2.8C65.8,44.5,84.9,70.4,85,70.5" fill="#278943"/><path d="M94.6,35.2C72.3,69.4,55.2,24.4,94.6,35.2" fill="#7EB642" fill-rule="evenodd"/></g></g></svg>