<?xml version="1.0" ?><!DOCTYPE svg  PUBLIC '-//W3C//DTD SVG 1.1 Tiny//EN'  'http://www.w3.org/Graphics/SVG/1.1/DTD/svg11-tiny.dtd'><svg baseProfile="tiny" id="Layer_1" overflow="scroll" version="1.1" viewBox="0 0 128 128" xml:space="preserve" xmlns="http://www.w3.org/2000/svg" xmlns:xlink="http://www.w3.org/1999/xlink"><g><g><path d="M66.1,59.1c0,1.1-0.9,2.1-2.1,2.1c-1.1,0-2.1-0.9-2.1-2.1V29.6c0-2,0.8-3.8,2.1-5.1l0,0l0,0l0,0     c1.3-1.3,3.1-2.1,5.1-2.1c1.1,0,2.1,0.9,2.1,2.1s-0.9,2.1-2.1,2.1c-0.9,0-1.6,0.3-2.2,0.9l0,0c-0.6,0.6-0.9,1.3-0.9,2.2V59.1z" fill="#278943"/><path d="M37.7,31.1C62.8,69.5,82,18.9,37.7,31.1" fill="#7EB642" fill-rule="evenodd"/><path d="M97.1,69c0-9.7-7.9-17.6-17.6-17.6c-5.2,0-10.1,2.3-13.4,6.2v1.4     c0,1.1-0.9,2.1-2.1,2.1c-1.1,0-2.1-0.9-2.1-2.1v-1.4c-3.3-3.9-8.2-6.2-13.4-6.2c-9.7,0-17.6,7.9-17.6,17.6c0,1,0.1,2.1,0.3,3.1     c2.3,12.4,19.1,47.5,32.8,27.5c13.7,20,30.5-15.1,32.8-27.5C97,71.1,97.1,70,97.1,69" fill="#D73426" fill-rule="evenodd"/></g></g></svg>