<?xml version="1.0" ?><svg id="svg8" version="1.1" viewBox="0 0 33.866666 33.866668" xmlns="http://www.w3.org/2000/svg" xmlns:svg="http://www.w3.org/2000/svg" xmlns:xlink="http://www.w3.org/1999/xlink"><defs id="defs2"><clipPath clipPathUnits="userSpaceOnUse" id="clipPath5292"><ellipse cx="554.68481" cy="1234.8002" id="ellipse5294" rx="46.906162" ry="46.90797" style="display:inline;opacity:0.469;fill:#ffaaaa;fill-rule:evenodd;stroke:#333333;stroke-width:3.5625;stroke-linecap:round;stroke-linejoin:round;stroke-miterlimit:4;stroke-dasharray:none;stroke-dashoffset:6.5999999;stroke-opacity:1"/></clipPath><clipPath clipPathUnits="userSpaceOnUse" id="clipPath6174"><ellipse cx="128.2972" cy="1416.0679" id="ellipse6176" rx="55.76445" ry="55.766594" style="display:inline;opacity:0.572;fill:#ff9696;fill-opacity:1;fill-rule:evenodd;stroke:#333333;stroke-width:4.21448183;stroke-linecap:round;stroke-linejoin:round;stroke-miterlimit:4;stroke-dasharray:none;stroke-dashoffset:6.5999999;stroke-opacity:1"/></clipPath><clipPath clipPathUnits="userSpaceOnUse" id="clipPath5123"><ellipse cx="68.499504" cy="1656.6876" id="ellipse5125" rx="71.409416" ry="71.223892" style="display:inline;opacity:0.45199998;fill:#ffe680;fill-rule:evenodd;stroke:none;stroke-width:4.21448183;stroke-linecap:round;stroke-linejoin:round;stroke-miterlimit:4;stroke-dasharray:none;stroke-dashoffset:6.5999999;stroke-opacity:1"/></clipPath><clipPath clipPathUnits="userSpaceOnUse" id="clipPath8754"><ellipse cx="205.48343" cy="1298.3982" id="ellipse8756" rx="78.18396" ry="83.010139" style="display:inline;opacity:0.419;fill:#ffaaaa;fill-opacity:1;fill-rule:evenodd;stroke:#333333;stroke-width:4.21448183;stroke-linecap:round;stroke-linejoin:round;stroke-miterlimit:4;stroke-dasharray:none;stroke-dashoffset:6.5999999;stroke-opacity:1"/></clipPath><clipPath clipPathUnits="userSpaceOnUse" id="clipPath11474"><ellipse cx="230.12242" cy="1486.3468" id="ellipse11476" rx="55.76445" ry="55.766594" style="display:inline;opacity:0.32099998;fill:#efb5e3;fill-opacity:1;fill-rule:evenodd;stroke:none;stroke-width:4.21448183;stroke-linecap:round;stroke-linejoin:round;stroke-miterlimit:4;stroke-dasharray:none;stroke-dashoffset:6.5999999;stroke-opacity:1"/></clipPath><clipPath clipPathUnits="userSpaceOnUse" id="clipPath5143"><ellipse cx="209.94763" cy="1573.1123" id="ellipse5145" rx="55.764446" ry="55.766594" style="display:inline;opacity:0.43500001;fill:#ffaaaa;fill-rule:evenodd;stroke:#333333;stroke-width:4.21448183;stroke-linecap:round;stroke-linejoin:round;stroke-miterlimit:4;stroke-dasharray:none;stroke-dashoffset:6.5999999;stroke-opacity:1"/></clipPath></defs><g id="layer1" transform="translate(0,-263.13332)"><g id="g5586" transform="matrix(0.31117551,0,0,0.31117551,-163.80657,-295.5741)"><g id="g5524" transform="translate(109.6875,257.81249)"><path d="m 452.70117,1543.748 c -8.23268,0.7803 -14.70302,5.402 -19.30859,11.0372 -4.60557,5.6352 -7.70605,12.3496 -10.14453,18.5976 a 5.4137441,5.4137441 0 0 0 9.13476,5.5117 c 3.79862,-4.3869 8.69152,-6.0355 14.73633,-7.1289 6.04481,-1.0934 12.88326,-1.2522 19.42578,-3.8926 3.29492,-1.3296 4.94431,-3.4315 6.36133,-5.1308 1.41702,-1.6993 2.38867,-3.2324 2.38867,-3.2324 a 5.4137441,5.4137441 0 0 0 -0.43359,-6.3965 c 0,0 -8.65114,-10.6455 -22.16016,-9.3653 z" id="path5515" style="fill:#000000;fill-rule:evenodd;stroke:none;stroke-width:7.19274807;stroke-linecap:round;stroke-linejoin:round;stroke-miterlimit:4;stroke-dasharray:none;stroke-opacity:1" transform="translate(-6.7701734e-4,0.00277077)" xlink:href="#path5055"/><path d="m 471.24805,1538.1738 a 5.3941785,5.3941785 0 0 0 -5.38477,4.8418 c -0.77691,7.5583 -1.03772,15.2595 -0.16406,23.0762 a 5.3941785,5.3941785 0 0 0 0.61328,1.9629 c 1.09893,2.0358 4.45392,4.0109 6.77148,3.8066 2.31757,-0.2042 3.30215,-1.0179 3.94141,-1.3652 a 5.3941785,5.3941785 0 0 0 2.67578,-5.9785 c -1.22292,-5.1822 -1.04419,-11.3627 -0.11523,-18.1035 a 5.3941785,5.3941785 0 0 0 -0.92188,-3.8262 c -1.80695,-2.5861 -4.82521,-3.7727 -5.3164,-3.9824 a 5.3941785,5.3941785 0 0 0 -2.09961,-0.4317 z" id="path5513" style="fill:#000000;fill-opacity:1;fill-rule:evenodd;stroke:none;stroke-width:7.19274807;stroke-linecap:round;stroke-linejoin:round;stroke-miterlimit:4;stroke-dasharray:none;stroke-opacity:1" transform="translate(3.8533923e-6)" xlink:href="#path5053"/><path d="m 472.77344,1554.2637 c -28.05175,-0.5729 -46.30883,22.0334 -47.70117,44.0312 -0.88531,13.987 4.89865,25.9064 13.45898,34.1387 8.56033,8.2322 19.82194,13.0532 30.78516,13.5039 11.11263,0.4569 23.0187,-2.496 32.58789,-9.9102 9.56918,-7.4141 16.5063,-19.4143 17.44336,-35.6386 1.33772,-23.1602 -20.59705,-45.5944 -46.57422,-46.125 z" id="path5511" style="fill:#000000;fill-opacity:1;fill-rule:evenodd;stroke:none;stroke-width:7.19274807;stroke-linecap:round;stroke-linejoin:round;stroke-miterlimit:4;stroke-dasharray:none;stroke-opacity:1" transform="translate(3.8533923e-6)" xlink:href="#path5051"/><path d="m 472.67196,1559.2524 c -25.3345,-0.5174 -41.38794,19.8639 -42.6218,39.3578 -1.57855,24.9394 20.25924,41.5524 39.47148,42.3423 20.14403,0.8282 43.11352,-10.862 44.84552,-40.8501 1.13323,-19.6198 -18.65479,-40.3794 -41.6952,-40.85 z" id="path5051" style="fill:#ff9955;fill-opacity:1;fill-rule:evenodd;stroke:none;stroke-width:4.125;stroke-linecap:round;stroke-linejoin:round;stroke-miterlimit:4;stroke-dasharray:none;stroke-opacity:1"/><path d="m 471.05799,1565.4926 c -0.81685,-7.3085 -0.58047,-14.617 0.17077,-21.9255 1.00462,0.429 2.00921,0.6727 3.01383,2.1105 -0.97403,7.0679 -1.25355,13.8863 0.20778,20.0788 -1.25949,0.6842 -2.51717,1.3576 -3.39238,-0.2638 z" id="path5053" style="fill:#a05a2c;fill-opacity:1;fill-rule:evenodd;stroke:none;stroke-width:4.125;stroke-linecap:round;stroke-linejoin:round;stroke-miterlimit:4;stroke-dasharray:none;stroke-opacity:1"/><path d="m 428.29036,1575.3512 c 9.81212,-11.3317 25.7514,-8.2694 36.22855,-12.4976 3.00481,-1.2126 6.20797,-6.2487 6.20797,-6.2487 0,0 -7.14039,-8.4524 -17.51681,-7.469 -13.13041,1.2444 -20.23671,14.2162 -24.91971,26.2153 z" id="path5055" style="fill:#5aa02c;fill-rule:evenodd;stroke:none;stroke-width:4.125;stroke-linecap:round;stroke-linejoin:round;stroke-miterlimit:4;stroke-dasharray:none;stroke-opacity:1"/></g><path d="m 556.34552,1839.9048 c 0.54156,0.2157 -0.31598,3.137 -1.14226,7.9018 -0.81516,4.7006 -1.59245,11.3614 -0.0693,18.2591 0.0188,0.087 0.0379,0.1733 0.0574,0.2601 0.964,4.289 2.67809,7.9993 4.69984,11.0256 4.54407,6.84 9.84803,10.0036 9.47603,10.634 -0.16014,0.2714 -6.36668,-1.1835 -12.20996,-8.6518 -2.5057,-3.2182 -4.60829,-7.3397 -5.69153,-12.1716 -0.0219,-0.098 -0.0433,-0.1952 -0.0642,-0.2927 -1.63792,-7.7863 -0.35867,-14.9238 1.18163,-19.7128 1.56047,-4.8516 3.34448,-7.4181 3.76234,-7.2517 z" id="path5546" style="opacity:1;fill:#000000;fill-opacity:1;fill-rule:evenodd;stroke:none;stroke-width:6.12546301;stroke-linecap:round;stroke-linejoin:round;stroke-miterlimit:4;stroke-dasharray:none;stroke-dashoffset:0;stroke-opacity:1"/></g></g></svg>